# xmcd
#
# Track frame offsets:
#	150
#	16289
#	33426
#	49566
#	66585
#	83174
#	103964
#	120743
#	137353
#	157947
#	176757
#	199899
#	218951
#	235260
#	255030
#	271342
#
# Disc length: 3878 seconds
#
# Revision: 1
# Processed by: cddbd v1.5.1PL0 Copyright (c) Steve Scherf et al.
# Submitted via: CDex 1.50Beta5
#
DISCID=da0f2410
DTITLE=Various Artist - ANIME
DYEAR=1900
DGENRE=ANIME
TTITLE0=林原めぐみ/Northern lights
TTITLE1=林原めぐみ/おもかげ
TTITLE2=林原めぐみ/Northern lights -instrumental-
TTITLE3=林原めぐみ/おもかげ -instrumental-
TTITLE4=下川みくに/tomorrow
TTITLE5=下川みくに/枯れない花
TTITLE6=下川みくに/キミノユメ
TTITLE7=下川みくに/tomorrow -insturumental-
TTITLE8=下川みくに/枯れない花 -instrumental-
TTITLE9=坂本真綾/ヘミソフィア
TTITLE10=坂本真綾/音楽
TTITLE11=坂本真綾/ヘミソフィア without maaya
TTITLE12=雲子/Higher and Higher
TTITLE13=雲子/飛行船
TTITLE14=雲子/Higher and Higher -off vocal version-
TTITLE15=雲子/飛行船 -off vocal version-
EXTD=
EXTT0=
EXTT1=
EXTT2=
EXTT3=
EXTT4=
EXTT5=
EXTT6=
EXTT7=
EXTT8=
EXTT9=
EXTT10=
EXTT11=
EXTT12=
EXTT13=
EXTT14=
EXTT15=
PLAYORDER=
